<svg id="visual" viewBox="0 0 900 600" width="900" height="600" xmlns="http://www.w3.org/2000/svg" xmlns:xlink="http://www.w3.org/1999/xlink" version="1.1"><rect x="0" y="0" width="900" height="600" fill="#0066FF"></rect><defs><linearGradient id="grad1_0" x1="33.3%" y1="100%" x2="100%" y2="0%"><stop offset="20%" stop-color="#f9ff00" stop-opacity="1"></stop><stop offset="80%" stop-color="#f9ff00" stop-opacity="1"></stop></linearGradient></defs><defs><linearGradient id="grad1_1" x1="33.3%" y1="100%" x2="100%" y2="0%"><stop offset="20%" stop-color="#f9ff00" stop-opacity="1"></stop><stop offset="80%" stop-color="#ff4f80" stop-opacity="1"></stop></linearGradient></defs><defs><linearGradient id="grad1_2" x1="33.3%" y1="100%" x2="100%" y2="0%"><stop offset="20%" stop-color="#0066ff" stop-opacity="1"></stop><stop offset="80%" stop-color="#ff4f80" stop-opacity="1"></stop></linearGradient></defs><defs><linearGradient id="grad2_0" x1="0%" y1="100%" x2="66.7%" y2="0%"><stop offset="20%" stop-color="#f9ff00" stop-opacity="1"></stop><stop offset="80%" stop-color="#f9ff00" stop-opacity="1"></stop></linearGradient></defs><defs><linearGradient id="grad2_1" x1="0%" y1="100%" x2="66.7%" y2="0%"><stop offset="20%" stop-color="#ff4f80" stop-opacity="1"></stop><stop offset="80%" stop-color="#f9ff00" stop-opacity="1"></stop></linearGradient></defs><defs><linearGradient id="grad2_2" x1="0%" y1="100%" x2="66.7%" y2="0%"><stop offset="20%" stop-color="#ff4f80" stop-opacity="1"></stop><stop offset="80%" stop-color="#0066ff" stop-opacity="1"></stop></linearGradient></defs><g transform="translate(900, 600)"><path d="M-216.3 0C-215.4 -46.1 -214.6 -92.2 -187.3 -108.2C-160.1 -124.1 -106.6 -110 -71 -123C-35.4 -136 -17.7 -176.2 0 -216.3L0 0Z" fill="#fa3bd4"></path><path d="M-144.2 0C-143.6 -30.7 -143 -61.5 -124.9 -72.1C-106.8 -82.8 -71.1 -73.3 -47.3 -82C-23.6 -90.7 -11.8 -117.4 0 -144.2L0 0Z" fill="#ffad24"></path><path d="M-72.1 0C-71.8 -15.4 -71.5 -30.7 -62.4 -36.1C-53.4 -41.4 -35.5 -36.7 -23.7 -41C-11.8 -45.3 -5.9 -58.7 0 -72.1L0 0Z" fill="#f9ff00"></path></g><g transform="translate(0, 0)"><path d="M216.3 0C194.6 28.4 172.9 56.7 157.6 91C142.3 125.3 133.4 165.5 108.2 187.3C83 209.2 41.5 212.8 0 216.3L0 0Z" fill="#fa3bd4"></path><path d="M144.2 0C129.8 18.9 115.3 37.8 105.1 60.7C94.9 83.5 88.9 110.3 72.1 124.9C55.3 139.5 27.7 141.9 0 144.2L0 0Z" fill="#ffad24"></path><path d="M72.1 0C64.9 9.5 57.6 18.9 52.5 30.3C47.4 41.8 44.5 55.2 36.1 62.4C27.7 69.7 13.8 70.9 0 72.1L0 0Z" fill="#f9ff00"></path></g></svg>